<svg width="110" height="110" viewBox="0 0 110 110" fill="none" xmlns="http://www.w3.org/2000/svg">
<path d="M105.164 26.2112V101.629C105.164 103.581 103.581 105.164 101.629 105.164H26.2112C24.2588 105.164 22.676 103.581 22.676 101.629V26.2112C22.676 24.2588 24.2588 22.676 26.2112 22.676H101.629C103.581 22.676 105.164 24.2588 105.164 26.2112Z" stroke="black" stroke-width="8.838" stroke-linecap="round" stroke-linejoin="round"/>
<path d="M87.488 5H8.5352C6.58277 5 5 6.58277 5 8.5352V87.488" stroke="black" stroke-width="8.838" stroke-linecap="round" stroke-linejoin="round"/>
<path d="M22.676 80.4176L54.7544 69.812L105.164 87.488" stroke="black" stroke-width="8.838" stroke-linecap="round" stroke-linejoin="round"/>
<path d="M78.65 58.028C73.769 58.028 69.812 54.0709 69.812 49.19C69.812 44.3091 73.769 40.352 78.65 40.352C83.5309 40.352 87.488 44.3091 87.488 49.19C87.488 54.0709 83.5309 58.028 78.65 58.028Z" stroke="black" stroke-width="8.838" stroke-linecap="round" stroke-linejoin="round"/>
</svg>
