<svg width="34" height="32" viewBox="0 0 34 32" fill="none" xmlns="http://www.w3.org/2000/svg">
<path d="M30.0026 2H23.8905L24.6561 9.65608C24.6561 9.65608 26.1873 11.1873 28.4841 11.1873C30.1332 11.1873 31.2561 10.3979 31.7583 9.95268C31.9585 9.77524 32.0316 9.50435 31.9877 9.24052L30.9088 2.76769C30.835 2.32469 30.4517 2 30.0026 2Z" stroke="black" stroke-width="3"/>
<path d="M23.8905 2L24.6561 9.65608C24.6561 9.65608 23.1249 11.1873 20.828 11.1873C18.5312 11.1873 17 9.65608 17 9.65608V2H23.8905Z" stroke="black" stroke-width="3"/>
<path d="M17 2V9.65608C17 9.65608 15.4688 11.1873 13.172 11.1873C10.8751 11.1873 9.34393 9.65608 9.34393 9.65608L10.1095 2H17Z" stroke="black" stroke-width="3"/>
<path d="M10.1095 2H3.99734C3.54824 2 3.16496 2.32469 3.09112 2.76769L2.0123 9.24054C1.96834 9.50435 2.04158 9.77524 2.24171 9.95268C2.74383 10.3979 3.8667 11.1873 5.51586 11.1873C7.81269 11.1873 9.34393 9.65608 9.34393 9.65608L10.1095 2Z" stroke="black" stroke-width="3"/>
<path d="M3.22934 11.1873V26.4995C3.22934 28.1909 4.60044 29.5619 6.29177 29.5619H27.7288C29.4202 29.5619 30.7912 28.1909 30.7912 26.4995V11.1873" stroke="black" stroke-width="3"/>
<path d="M21.3487 29.5619V20.3746C21.3487 18.6832 19.9776 17.3121 18.2863 17.3121H15.2238C13.5325 17.3121 12.1614 18.6832 12.1614 20.3746V29.5619" stroke="black" stroke-width="3" stroke-miterlimit="16"/>
</svg>
