<svg width="162" height="166" viewBox="0 0 162 166" fill="none" xmlns="http://www.w3.org/2000/svg">
<path d="M120.939 158.777H12.2699C9.35942 158.777 7 156.418 7 153.507V67.4317C7 64.5212 9.35942 62.1617 12.2699 62.1617H36.5784C42.7489 62.1617 48.4668 58.9243 51.6414 53.6332L75.4473 13.9562C80.5846 5.395 92.6834 4.58115 98.9204 12.3775C101.86 16.0522 102.808 20.9366 101.455 25.4442L92.4753 55.3775C91.4608 58.7588 93.993 62.1617 97.523 62.1617H137.707C149.289 62.1617 157.702 73.1758 154.654 84.3498L137.886 145.832C135.802 153.475 128.86 158.777 120.939 158.777Z" stroke="black" stroke-width="13.1748" stroke-linecap="round"/>
<path d="M37.7411 158.777V62.1619" stroke="black" stroke-width="13.1748" stroke-linecap="round" stroke-linejoin="round"/>
</svg>
