<svg width="34" height="33" viewBox="0 0 34 33" fill="none" xmlns="http://www.w3.org/2000/svg">
<path d="M17 2C8.71572 2 2 8.4992 2 16.5164C2 24.5335 8.71572 31.0328 17 31.0328C25.2842 31.0328 32 24.5335 32 16.5164C32 8.4992 25.2842 2 17 2Z" stroke="black" stroke-width="3" stroke-linecap="round" stroke-linejoin="round"/>
<path d="M5.40646 25.728C5.40646 25.728 8.74999 21.5971 17 21.5971C25.25 21.5971 28.5936 25.728 28.5936 25.728" stroke="black" stroke-width="3" stroke-linecap="round" stroke-linejoin="round"/>
<path d="M17 16.5164C19.4853 16.5164 21.5 14.5667 21.5 12.1615C21.5 9.75635 19.4853 7.80658 17 7.80658C14.5146 7.80658 12.5 9.75635 12.5 12.1615C12.5 14.5667 14.5146 16.5164 17 16.5164Z" stroke="black" stroke-width="3" stroke-linecap="round" stroke-linejoin="round"/>
</svg>
